<?xml version="1.0" encoding="UTF-8"?>
<svg id="color" xmlns="http://www.w3.org/2000/svg" xmlns:xlink="http://www.w3.org/1999/xlink" viewBox="0 0 360 360">
  <defs>
    <style>
      .cls-1, .cls-2 {
        fill: #fff;
      }

      .cls-2 {
        font-family: RalewayRoman-Medium, Raleway;
        font-size: 16.85px;
        font-variation-settings: 'wght' 500;
      }

      .cls-3 {
        letter-spacing: 0em;
      }

      .cls-4 {
        letter-spacing: -.03em;
      }

      .cls-5 {
        clip-path: url(#clippath);
      }

      .cls-6 {
        letter-spacing: 0em;
      }

      .cls-7 {
        letter-spacing: 0em;
      }

      .cls-8 {
        stroke-miterlimit: 10;
      }

      .cls-8, .cls-9 {
        fill: none;
        stroke: #fff;
        stroke-linecap: round;
        stroke-width: 4px;
      }

      .cls-9 {
        stroke-linejoin: round;
      }
    </style>
    <clipPath id="clippath">
      <path d="M178.92,144.07c-8.03-16.7-6.84-37.06-.66-54.15l9.26,1.76c8.62,16.54,4.81,35.65,.6,52.86l-9.2-.48Z"/>
    </clipPath>
  </defs>
  <rect id="bg4" x="-4.42" y="-6.66" width="368.83" height="373.35"/>
  <g id="eye4">
    <path d="M130.34,92.95c-1.36,1.4-3.29,2.33-5.81,2.35-3.59,.04-7.52,2.6-10.77,3.94-3.83,1.58-7.79,2.78-11.57,4.47-8.14,3.65-15.64,7.61-22.94,12.58,.25,.39,.55,.77,.85,1.15,1.25-1,2.84-1.69,4.77-1.88,.91-.09,1.83-.14,2.74-.16,4.25-.35,8.89-1.04,12.73,.41,.16,0,.31-.02,.47-.01,5.11,.12,10.51,.68,15.44,2.3,1.84,.26,3.66,.55,5.44,1.16,1.67,.57,2.97,1.5,3.93,2.64,2.96,1.27,5.82,2.7,8.35,4.76,10.94-3.33,18.27-9.41,18.27-16.37,0-7.7-8.98-14.33-21.91-17.34Z"/>
    <path d="M231.8,135.56c17.75-6.94,33.91-15.46,49.4-26.46,.15-.24,.32-.47,.48-.69-.43-.48-.88-.94-1.37-1.39-.6,.11-1.25,.16-1.93,.14-8.56-.23-17.09-.74-25.67-.91-8.18-.17-16.33,.04-24.36-1.72-5.6,3.82-9.03,8.94-9.03,14.59,0,6.67,4.78,12.62,12.28,16.53,.07-.03,.13-.06,.2-.09Z"/>
    <path class="cls-1" d="M234.82,120.7c-.21-4.4-.73-8.38-1.95-12.61-.21-.74-.33-1.45-.36-2.13-.41-.51-.86-1-1.31-1.5-.79-.05-1.62-.22-2.5-.55-2.64-.99-5.26-2-7.91-2.94-1.41,.46-3.05,.55-4.9,.12-1.49-.35-2.84-.85-4.13-1.47-6.54-2.27-13.29-4.25-19.87-6.29-4.78-1.49-9.45-2.26-13.8-4.09-5.6,1.92-11.23,.71-18.02,.71-4.92,0-9.29,1.31-14.08,2.09-3.28,.53-6.61,.55-9.92,.77-.38,1.12-1.02,2.19-1.98,3.13-.1,.31-.24,.77-.42,1.45-.28,1.06-.72,2.01-1.09,3.04-.98,2.75-1.52,5.22-1.59,8.13-.17,6.95,2.23,11.64,4.35,18.06,.26,.8,.4,1.55,.44,2.27,3.09,2.64,6.7,5.11,10.77,7.32,6.66,1.19,13.51,3.1,19.93,5.16,7.14,2.29,13.71,2.79,21.2,2.52,7.12-.25,14.45-.45,21.5-1.46,3.23-.46,6.27-1.45,9.44-2.2,2.93-.7,5.82-.83,8.4-2.46,1.26-.8,2.5-1.21,3.69-1.32,.29-.25,.57-.51,.85-.76,.04-.68,.15-1.38,.38-2.12,.13-.35,.22-.71,.32-1.07,.11-.6,.23-1.21,.38-1.87,.39-1.67,1.1-2.97,2.02-3.94,.22-2.21,.24-4.43,.17-5.97Z"/>
    <g>
      <path d="M178.92,144.07c-8.03-16.7-6.84-37.06-.66-54.15l9.26,1.76c8.62,16.54,4.81,35.65,.6,52.86l-9.2-.48Z"/>
      <g class="cls-5">
        <ellipse cx="182.02" cy="118.12" rx="18.81" ry="28"/>
      </g>
    </g>
    <path class="cls-8" d="M77.35,118.41c38.62-10.62,57.61,9.02,57.61,9.02,17.04,16.64,54.93,17.24,54.93,17.24,57.33-4.01,92.92-38,92.92-38-11.76,.71-29.64,.94-50.94-2.43-26.62-4.2-39.72-13.21-53.61-14.31-49.61-3.94-87.02,17.65-100.91,26.68"/>
    <path class="cls-9" d="M137.81,129.92s-14.08-21.98-.94-37.61"/>
    <path class="cls-9" d="M230.34,136.45c10.24-21.27,0-32.46,0-32.46"/>
  </g>
  <g id="KEEN4">
    <g>
      <path class="cls-1" d="M137.95,183.55c-1.95,.36-3.47,.85-4.55,1.48-1.08,.63-2.09,1.54-3.05,2.74-.08-1.6-.59-3.17-1.53-4.7-.94-1.54-2.22-3.07-3.82-4.6,.44-.16,.82-.45,1.12-.86s.63-1.06,.96-1.92c.33-.86,.69-1.98,1.09-3.36,.4-1.38,.9-3.11,1.52-5.19-.17-.15-.6-.71-1.25-1.68-.66-.97-1.37-2.06-2.14-3.26-3.43,.41-5.16,.6-8.67,1-.59,2.48-1.08,4.89-1.47,7.2-.39,2.32-.62,4.62-.66,6.91-.92-.87-1.76-1.56-2.52-2.06-.77-.5-1.53-.91-2.29-1.22-.68-.28-1.36-.49-2.05-.65-.69-.16-1.4-.32-2.14-.48-.74-.16-1.5-.33-2.29-.52-.79-.19-1.64-.45-2.56-.79-.2-.07-.42-.15-.66-.24-.24-.09-.45-.18-.64-.29,.99-.13,1.95-.42,2.89-.88,.94-.45,1.8-1.02,2.59-1.7,.79-.68,1.48-1.44,2.08-2.31,.6-.86,1.05-1.76,1.37-2.69,.57-1.7,.9-3.45,.99-5.24,.1-1.79-.16-3.4-.75-4.83,1.64-1.33,2.88-2.64,3.75-3.92,.87-1.28,1.55-2.69,2.07-4.22,.16-.47,.35-1.06,.57-1.78,.22-.72,.39-1.36,.5-1.93-1.12-.82-1.88-1.76-2.29-2.83-.41-1.07-.37-2.6,.11-4.6,.52,.38,.99,.72,1.41,1.03,.42,.31,.85,.6,1.29,.89,.45,.29,.95,.57,1.52,.85s1.27,.59,2.1,.94c.73,.3,1.3,.54,1.74,.72,.43,.18,.86,.34,1.29,.49,.43,.14,.91,.28,1.46,.42,.55,.14,1.27,.33,2.18,.57-.88,.72-1.63,1.5-2.26,2.33-.63,.83-1.24,1.9-1.84,3.2-.6,1.3-1.22,2.93-1.88,4.87-.66,1.94-1.45,4.37-2.38,7.28,1.46-.07,2.94-.25,4.45-.54,1.5-.29,2.86-.61,4.08-.96,1.21-.35,2.2-.67,2.97-.94,.77-.28,1.25-.43,1.29-.47,.2-.23,.38-1.24,.73-2.1,.34-.85,.65-1.81,.92-2.87,.13-.51,.25-1.07,.34-1.67,.1-.6,.15-1.21,.15-1.84s-.05-1.24-.16-1.86-.31-1.18-.61-1.69c.36,.39,.79,.75,1.26,1.09,.48,.34,.94,.65,1.4,.92,.46,.27,.87,.5,1.23,.67,.36,.18,.62,.29,.76,.35,.53,.22,1.04,.33,1.55,.32,.51-.01,1.03-.03,1.57-.05,.54-.02,1.14,0,1.78,.03,.64,.04,1.37,.22,2.17,.53,.23,.09,.35,.14,.58,.23-.64,.35-1.24,.79-1.78,1.34-.54,.55-1.02,1.17-1.43,1.87-.41,.7-.76,1.43-1.05,2.19-.29,.76-.52,1.52-.69,2.28-.25,1.1-.39,2.19-.41,3.28-.03,1.09,.04,2.1,.2,3.02-.2,0-.53,0-.97,0-.45,0-.99,.04-1.61,.09-.62,.05-1.29,.12-2.01,.2-.72,.08-1.46,.15-2.22,.21,.35,.6,.76,1.2,1.24,1.81s.98,1.22,1.52,1.83c.54,.61,1.08,1.21,1.61,1.79,.53,.58,1.03,1.13,1.5,1.64-.27,.31-.56,.9-.86,1.79-.3,.89-.59,1.94-.85,3.14-.2,.89-.36,1.81-.48,2.75-.12,.94-.18,1.87-.16,2.78,.02,.92,.1,1.77,.25,2.57,.15,.8,.43,1.49,.83,2.08Z"/>
      <path class="cls-1" d="M142.85,187.41c.67-.11,1.33-.52,1.95-1.24,.63-.71,1.21-1.57,1.76-2.58,.54-1,1-2.08,1.37-3.22,.37-1.15,.64-2.22,.82-3.22,.28-1.56,.35-3.1,.24-4.64-.11-1.53-.43-2.76-.94-3.7,.71-.35,1.35-.93,1.91-1.72,.56-.79,1.05-1.68,1.46-2.67,.41-.99,.75-2.02,1.01-3.11,.27-1.09,.48-2.11,.65-3.08,.14-.8,.24-1.49,.31-2.09,.07-.6,.11-1.06,.13-1.38-.78-.53-1.53-1.38-2.25-2.53-.71-1.16-1.18-2.31-1.41-3.47,2.21,1.04,4.33,1.89,6.35,2.56,2.02,.67,3.94,1.19,5.75,1.57,3.87,.82,7.02,1,9.44,.97,2.42-.03,4.32-.03,5.72,.04,.29,.02,.54,.04,.75,.06,.21,.03,.41,.06,.59,.11-.24,.38-.52,1.06-.83,2.07-.31,1-.62,2.1-.94,3.3-.31,1.2-.6,2.36-.86,3.49-.26,1.13-.45,1.97-.57,2.53-.16,.05-.24,.08-.41,.13-1.25-.79-2.12-1.65-2.61-2.57-.49-.92-.61-2.53-.99-3.26-.2-.37-1.09-.73-1.84-.91s-1.71-.33-2.87-.48c-.94-.12-1.85-.25-2.73-.36-.87-.12-1.57-.23-2.07-.34-.48,1.3-.93,2.91-1.36,4.82s-.83,3.96-1.22,6.14c.52,.18,1.05,.34,1.6,.46,.55,.12,.97,.21,1.28,.26,.8,.14,1.62-.02,2.47-.49,.85-.47,1.68-1.12,2.5-1.95,.14,.44,.27,.94,.4,1.5,.13,.56,.29,1.13,.48,1.69,.19,.57,.41,1.11,.66,1.63,.25,.52,.58,.92,.98,1.21-.38,.28-.76,.65-1.14,1.11-.38,.46-.75,.95-1.1,1.48-.35,.53-.69,1.06-1,1.59-.32,.53-.6,1.01-.85,1.44-.19-.41-.42-.86-.68-1.35-.26-.49-.54-.95-.84-1.39-.3-.43-.64-.81-1.02-1.13-.37-.32-.79-.52-1.25-.6-.35-.06-.85-.13-1.51-.22-.66-.09-1.27-.15-1.83-.16l-.13,.94c-.31,2.19-.58,4.28-.81,6.26-.22,1.98-.36,3.72-.4,5.21,4.05,1.2,6.09,1.61,10.18,2.4,.79-2.11,1.99-3.93,3.56-5.49,1.58-1.56,3.23-3.08,4.97-4.56,.14,.05,.21,.08,.35,.13-.18,.8-.32,1.6-.42,2.39s-.18,1.56-.24,2.3c-.14,1.83-.17,3.49-.07,4.99,.09,1.49,.26,2.62,.49,3.38-.71,.02-1.4,.07-2.09,.14-.69,.07-1.44,.21-2.25,.43-.81,.21-1.68,.52-2.62,.93-.94,.4-1.99,.93-3.15,1.59-3.4-1.25-6.75-2.39-10.07-3.54-3.32-1.15-6.31-2.19-9.01-3-1.31-.39-2.55-.6-3.72-.62-.01-.07-.02-.11-.03-.18Z"/>
      <path class="cls-1" d="M181.39,193.68c.64-.29,1.22-.86,1.73-1.73,.52-.87,.97-1.86,1.37-2.99s.7-2.3,.91-3.52c.21-1.22,.34-2.35,.38-3.38,.06-1.6-.06-3.14-.37-4.61-.31-1.47-.78-2.58-1.4-3.34,.65-.55,1.19-1.3,1.64-2.24,.44-.94,.8-1.95,1.07-3.03,.27-1.08,.46-2.19,.58-3.33,.12-1.14,.19-2.2,.23-3.19,.03-.81,.03-1.52,.02-2.12-.02-.6-.04-1.06-.06-1.38-.84-.28-1.68-.86-2.54-1.75-.85-.89-1.47-1.84-1.84-2.87,2.29,.29,4.48,.45,6.55,.5,2.07,.05,4.04,.04,5.89-.04,3.94-.16,7.13-.51,9.54-.94,2.41-.43,4.31-.72,5.71-.85,.29-.03,.54-.04,.76-.04,.22,0,.41,0,.6,.02-.19,.41-.37,1.13-.54,2.18-.17,1.05-.34,2.2-.49,3.45-.15,1.25-.28,2.47-.39,3.65-.11,1.18-.19,2.07-.24,2.65-.15,.08-.23,.12-.39,.2-1.35-.61-2.33-1.36-2.94-2.21-.61-.85-.94-2.46-1.42-3.13-.24-.34-1.18-.56-1.96-.61s-1.75-.04-2.93,.03c-.96,.06-1.88,.12-2.76,.2-.88,.08-1.59,.13-2.1,.15-.3,1.4-.53,3.09-.69,5.1-.16,2-.3,4.14-.39,6.4,.54,.06,1.09,.09,1.64,.09,.56,0,.99,0,1.3-.02,.81-.03,1.6-.36,2.39-.99,.78-.63,1.53-1.43,2.23-2.41,.2,.42,.4,.91,.6,1.46,.2,.55,.43,1.1,.7,1.64,.26,.55,.55,1.06,.87,1.55,.32,.49,.7,.85,1.13,1.08-.34,.35-.67,.79-.99,1.31-.32,.53-.62,1.09-.9,1.68-.28,.6-.55,1.19-.79,1.78-.25,.59-.46,1.13-.66,1.61-.24-.39-.53-.81-.85-1.27-.32-.46-.66-.88-1.02-1.26-.36-.38-.74-.7-1.16-.96-.41-.26-.85-.38-1.32-.36-.35,.01-.86,.04-1.53,.1-.67,.05-1.27,.14-1.82,.26,0,.39,0,.58-.01,.97-.02,2.27-.02,4.42,.02,6.45,.04,2.03,.13,3.8,.29,5.3,4.14,.34,6.22,.47,10.38,.66,.51-2.27,1.46-4.31,2.83-6.14,1.36-1.83,2.82-3.63,4.35-5.39,.14,.03,.22,.05,.36,.08-.08,.85-.11,1.69-.11,2.51,0,.82,.02,1.62,.06,2.39,.1,1.9,.28,3.6,.57,5.11,.28,1.51,.59,2.64,.92,3.38-.7,.12-1.38,.27-2.06,.44-.67,.17-1.4,.42-2.17,.75-.77,.33-1.6,.77-2.47,1.32-.88,.55-1.85,1.23-2.91,2.06-3.54-.77-7-1.38-10.41-1.83-3.41-.45-6.47-.73-9.2-.82-1.33-.04-2.56,.08-3.7,.38-.02-.06-.03-.1-.05-.16Z"/>
      <path class="cls-1" d="M248.65,177.84c-.92-3.46-1.76-6.81-2.52-10.05-.75-3.23-1.4-6.09-1.95-8.57-.55-2.48-.97-4.45-1.27-5.92-.3-1.48-.46-2.23-.46-2.26-.58-2.05-1.94-2.89-4.08-2.7,.35-.13,.69-.29,1.02-.46,.33-.17,.66-.34,1-.53,1.55-.82,2.94-1.71,4.19-2.63,1.25-.92,2.37-1.81,3.39-2.65,1.01-.84,1.93-1.62,2.75-2.34,.82-.72,1.6-1.33,2.34-1.82,.4-.27,.8-.48,1.2-.62-1.64,2.81-2.83,5.46-3.54,7.94-.71,2.48-.82,4.82-.3,7.05,.62,2.62,2.21,5.08,4.93,7.3-.33,2.6-.49,5.26-.46,7.99,.02,2.73,.31,5.29,.88,7.68,.25,1.03,.58,2.19,1,3.46,.42,1.27,.93,2.46,1.53,3.57,1.55,.42,2.91,.66,4.08,.72,1.17,.06,2.21,.01,3.11-.14,.9-.15,1.73-.38,2.47-.69,.74-.3,1.47-.62,2.18-.94-1.06-.98-1.58-1.47-2.63-2.47,1.64-.17,3.27-.38,4.9-.62,1.63-.24,3.29-.57,4.96-.97,1.68-.4,3.4-.93,5.17-1.55,1.76-.62,3.6-1.4,5.49-2.29,1.26-.59,2.55-1.22,3.88-1.86,1.32-.64,2.69-1.32,4.1-2.01-3.14,2.46-6.32,4.87-9.45,7.02-3.13,2.15-6.22,4.11-9.23,5.77-3.84,2.12-7.54,3.73-11.04,4.71-3.49,.98-6.8,1.48-9.89,1.44-3.09-.03-5.94-.52-8.54-1.46-2.6-.94-4.97-2.19-7.11-3.72-2.14-1.53-4.04-3.25-5.72-5.13-1.68-1.88-3.15-3.75-4.44-5.6,.26,2.23,.39,3.35,.66,5.59,.27,2.27,.57,4.15,.91,5.64s.77,2.76,1.28,3.79c.51,1.03,1.11,1.9,1.81,2.58,.7,.68,1.52,1.33,2.49,1.93-.96,.08-1.8,.09-2.53,.06-.72-.03-1.43-.12-2.11-.26-.68-.14-1.4-.36-2.13-.67-.74-.31-1.59-.72-2.57-1.26-.93,1.88-2.27,3.53-4.03,4.98s-4.21,2.76-7.36,3.89c1.2-1.13,2.29-2.4,3.27-3.81,.98-1.41,1.81-2.9,2.48-4.49s1.17-3.2,1.49-4.86c.32-1.65,.4-3.31,.26-4.96-.14-1.54-.48-3-1.01-4.39-.54-1.39-1.32-2.69-2.36-3.91,1.61-3.64,2.24-6.8,1.98-9.48-.22-2.28-1.02-4.24-2.37-5.91-1.35-1.67-3.17-3.14-5.44-4.43,.35-.14,.76-.24,1.22-.29,.71-.07,1.53-.08,2.46-.02,.93,.06,1.94,.12,3.05,.17,1.11,.05,2.3,.11,3.58,.06,1.28-.05,2.64-.26,4.08-.67,.35-.1,.69-.2,1.03-.31,.33-.1,.67-.23,1.02-.39-1.78,1.38-2.72,2.93-2.77,4.88,.84,1.44,1.86,3.08,3.08,4.92,1.21,1.84,2.58,3.72,4.11,5.63,1.54,1.91,3.22,3.77,5.08,5.55,1.85,1.78,3.81,3.36,5.85,4.73,.61,.41,.92,.61,1.54,1.01Z"/>
    </g>
  </g>
  <text class="cls-2" transform="translate(135.97 218.1)"><tspan class="cls-7" x="0" y="0">E</tspan><tspan x="10.11" y="0">ne</tspan><tspan class="cls-6" x="30.01" y="0">r</tspan><tspan class="cls-3" x="35.97" y="0">g</tspan><tspan class="cls-4" x="46.48" y="0">y</tspan><tspan x="55.21" y="0" xml:space="preserve"> Drink</tspan></text>
</svg>