<?xml version="1.0" encoding="UTF-8"?>
<svg id="Layer_1" data-name="Layer 1" xmlns="http://www.w3.org/2000/svg" viewBox="0 0 307.61 307.61">
  <defs>
    <style>
      .cls-1 {
        stroke: #fff;
        stroke-miterlimit: 10;
        stroke-width: 4px;
      }

      .cls-1, .cls-2 {
        fill: #231f20;
      }

      .cls-2, .cls-3 {
        stroke-width: 0px;
      }

      .cls-3 {
        fill: #41c3da;
      }
    </style>
  </defs>
  <rect class="cls-2" x="-9" y="-9" width="325.61" height="325.61"/>
  <g>
    <g>
      <polygon class="cls-1" points="37.32 66.67 37.71 152.22 74.09 152.22 34.61 254.8 59.38 254.8 104.87 137.9 59.38 137.12 59.38 84.86 150.35 84.86 150.35 254.8 171.64 254.8 171.64 84.86 171.64 66.67 37.32 66.67"/>
      <path class="cls-1" d="m150.35,84.39v170.41h134.32l-.39-85.55h-36.39l39.48-102.58h-24.77l-45.48,116.9,45.48.77v52.26h-90.97V66.67h-21.29"/>
    </g>
    <g>
      <polygon class="cls-3" points="30.32 59.67 30.71 145.22 67.09 145.22 27.61 247.8 52.38 247.8 97.87 130.9 52.38 130.12 52.38 77.86 143.35 77.86 143.35 247.8 164.64 247.8 164.64 77.86 164.64 59.67 30.32 59.67"/>
      <path class="cls-3" d="m143.35,77.39v170.41h134.32l-.39-85.55h-36.39l39.48-102.58h-24.77l-45.48,116.9,45.48.77v52.26h-90.97V59.67h-21.29"/>
    </g>
  </g>
</svg>