<?xml version="1.0" encoding="UTF-8"?>
<svg id="Layer_1" data-name="Layer 1" xmlns="http://www.w3.org/2000/svg" viewBox="0 0 307.47 308.92">
  <defs>
    <style>
      .cls-1 {
        stroke: #41c3da;
        stroke-miterlimit: 10;
        stroke-width: 4px;
      }

      .cls-1, .cls-2 {
        fill: #231f20;
      }

      .cls-3 {
        fill: #fff;
      }

      .cls-3, .cls-2 {
        stroke-width: 0px;
      }
    </style>
  </defs>
  <rect class="cls-2" x="-9" y="-8.55" width="325.61" height="325.61"/>
  <g>
    <g>
      <polygon class="cls-1" points="37.32 67.12 37.71 152.67 74.09 152.67 34.61 255.25 59.38 255.25 104.87 138.34 59.38 137.57 59.38 85.31 150.35 85.31 150.35 255.25 171.64 255.25 171.64 85.31 171.64 67.12 37.32 67.12"/>
      <path class="cls-1" d="m150.35,84.84v170.41h134.32l-.39-85.55h-36.39l39.48-102.58h-24.77l-45.48,116.9,45.48.77v52.26h-90.97V67.12h-21.29"/>
    </g>
    <g>
      <polygon class="cls-3" points="30.32 60.12 30.71 145.67 67.09 145.67 27.61 248.25 52.38 248.25 97.87 131.34 52.38 130.57 52.38 78.31 143.35 78.31 143.35 248.25 164.64 248.25 164.64 78.31 164.64 60.12 30.32 60.12"/>
      <path class="cls-3" d="m143.35,77.84v170.41h134.32l-.39-85.55h-36.39l39.48-102.58h-24.77l-45.48,116.9,45.48.77v52.26h-90.97V60.12h-21.29"/>
    </g>
  </g>
</svg>